<svg role="img" viewBox="0 0 24 24" xmlns="http://www.w3.org/2000/svg"><title>GitHub</title><path d="M12 .297c-6.63 0-12 5.373-12 12 0 5.303 3.438 9.8 8.205 11.387.6.113.82-.258.82-.577 0-.285-.01-1.04-.015-2.04-3.338.726-4.042-1.61-4.042-1.61-.546-1.387-1.333-1.757-1.333-1.757-1.089-.745.084-.729.084-.729 1.205.084 1.84 1.237 1.84 1.237 1.07 1.834 2.807 1.304 3.492.997.108-.776.418-1.305.762-1.605-2.665-.3-5.467-1.332-5.467-5.93 0-1.31.468-2.38 1.236-3.22-.124-.303-.535-1.523.117-3.176 0 0 1.008-.322 3.302 1.23.957-.266 1.984-.399 3.004-.404 1.02.005 2.047.138 3.006.404 2.292-1.552 3.298-1.23 3.298-1.23.653 1.653.242 2.873.119 3.176.77.84 1.234 1.91 1.234 3.22 0 4.61-2.807 5.625-5.479 5.921.43.371.823 1.102.823 2.222 0 1.605-.015 2.896-.015 3.286 0 .318.216.694.825.576C20.565 22.092 24 17.592 24 12.297c0-6.627-5.373-12-12-12z"></path></svg>
