<svg role="img" viewBox="0 0 24 24" xmlns="http://www.w3.org/2000/svg"><title>Tailwind CSS</title><path fill="#38BDF8" d="M12.001 4.8c-3.2 0-5.2 1.6-6 4.8 1.2-1.6 2.6-2.2 4.2-1.8.912.228 1.565.89 2.287 1.62C13.52 10.5 14.86 11.85 18 11.85c3.2 0 5.2-1.6 6-4.8-1.2 1.6-2.6 2.2-4.2 1.8-.912-.228-1.565-.89-2.287-1.62C16.48 6.15 15.14 4.8 12.001 4.8zm-6 7.05c-3.2 0-5.2 1.6-6 4.8 1.2-1.6 2.6-2.2 4.2-1.8.912.228 1.565.89 2.287 1.62 1.032 1.08 2.372 2.43 5.513 2.43 3.2 0 5.2-1.6 6-4.8-1.2 1.6-2.6 2.2-4.2 1.8-.912-.228-1.565-.89-2.287-1.62-1.032-1.08-2.372-2.43-5.513-2.43z"></path></svg>
